<?xml version="1.0" standalone="no"?>
<!DOCTYPE svg PUBLIC "-//W3C//DTD SVG 20010904//EN"
 "http://www.w3.org/TR/2001/REC-SVG-20010904/DTD/svg10.dtd">
<svg version="1.0" xmlns="http://www.w3.org/2000/svg"
 width="512.000000pt" height="512.000000pt" viewBox="0 0 512.000000 512.000000"
 preserveAspectRatio="xMidYMid meet">
<metadata>
Created by potrace 1.11, written by Peter Selinger 2001-2013
</metadata>
<g transform="translate(0.000000,512.000000) scale(0.100000,-0.100000)"
fill="#000000" stroke="none">
<path d="M1212 3700 l-22 -21 0 -873 0 -873 21 -19 c21 -18 58 -19 1333 -21
849 -1 1322 2 1343 8 22 7 35 19 42 41 16 46 15 1701 -1 1731 -6 12 -18 27
-27 34 -12 10 -315 12 -1342 13 -1320 0 -1325 0 -1347 -20z m2578 -890 l0
-770 -1230 0 -1230 0 0 770 0 770 1230 0 1230 0 0 -770z"/>
<path d="M1600 3420 c0 -18 7 -20 60 -20 53 0 60 2 60 20 0 18 -7 20 -60 20
-53 0 -60 -2 -60 -20z"/>
<path d="M1470 3415 c0 -11 12 -15 50 -15 38 0 50 4 50 15 0 11 -12 15 -50 15
-38 0 -50 -4 -50 -15z"/>
<path d="M1740 3415 c0 -11 12 -15 45 -15 33 0 45 4 45 15 0 11 -12 15 -45 15
-33 0 -45 -4 -45 -15z"/>
<path d="M1570 3355 c0 -12 16 -15 85 -15 69 0 85 3 85 15 0 12 -16 15 -85 15
-69 0 -85 -3 -85 -15z"/>
<path d="M1770 3349 c0 -17 5 -20 32 -17 22 2 34 9 36 21 3 14 -4 17 -32 17
-30 0 -36 -4 -36 -21z"/>
<path d="M1470 3245 c0 -11 12 -15 50 -15 38 0 50 4 50 15 0 11 -12 15 -50 15
-38 0 -50 -4 -50 -15z"/>
<path d="M1600 3245 c0 -13 28 -15 195 -15 167 0 195 2 195 15 0 13 -28 15
-195 15 -167 0 -195 -2 -195 -15z"/>
<path d="M1570 3180 c0 -19 7 -20 130 -20 123 0 130 1 130 20 0 19 -7 20 -130
20 -123 0 -130 -1 -130 -20z"/>
<path d="M1850 3180 c0 -13 7 -20 20 -20 13 0 20 7 20 20 0 13 -7 20 -20 20
-13 0 -20 -7 -20 -20z"/>
<path d="M1910 3180 c0 -19 7 -20 195 -20 188 0 195 1 195 20 0 19 -7 20 -195
20 -188 0 -195 -1 -195 -20z"/>
<path d="M1570 3115 c0 -13 27 -15 185 -15 158 0 185 2 185 15 0 13 -27 15
-185 15 -158 0 -185 -2 -185 -15z"/>
<path d="M1970 3115 c0 -13 27 -15 185 -15 158 0 185 2 185 15 0 13 -27 15
-185 15 -158 0 -185 -2 -185 -15z"/>
<path d="M2370 3115 c0 -12 18 -15 105 -15 87 0 105 3 105 15 0 12 -18 15
-105 15 -87 0 -105 -3 -105 -15z"/>
<path d="M2720 3115 c0 -12 13 -15 55 -15 42 0 55 3 55 15 0 12 -13 15 -55 15
-42 0 -55 -3 -55 -15z"/>
<path d="M1577 3063 c-4 -3 -7 -12 -7 -20 0 -10 21 -13 85 -13 78 0 85 2 85
20 0 18 -7 20 -78 20 -43 0 -82 -3 -85 -7z"/>
<path d="M1790 3050 c0 -19 7 -20 220 -20 213 0 220 1 220 20 0 19 -7 20 -220
20 -213 0 -220 -1 -220 -20z"/>
<path d="M2287 3064 c-4 -4 -7 -13 -7 -21 0 -10 34 -13 166 -13 152 0 165 1
162 18 -3 15 -20 17 -159 20 -85 1 -158 -1 -162 -4z"/>
<path d="M2670 3050 c0 -19 7 -20 100 -20 93 0 100 1 100 20 0 19 -7 20 -100
20 -93 0 -100 -1 -100 -20z"/>
<path d="M1570 2985 c0 -10 11 -15 35 -15 24 0 35 5 35 15 0 10 -11 15 -35 15
-24 0 -35 -5 -35 -15z"/>
<path d="M1670 2980 c0 -20 5 -20 207 -18 189 3 208 5 211 21 3 16 -12 17
-207 17 -205 0 -211 -1 -211 -20z"/>
<path d="M2260 2985 c0 -12 14 -15 65 -15 51 0 65 3 65 15 0 12 -14 15 -65 15
-51 0 -65 -3 -65 -15z"/>
<path d="M1760 2921 c0 -18 6 -21 46 -21 38 0 45 3 42 18 -2 12 -15 18 -46 20
-37 3 -42 1 -42 -17z"/>
<path d="M1957 2934 c-4 -4 -7 -13 -7 -21 0 -10 28 -13 131 -13 119 0 130 2
127 18 -3 15 -18 17 -124 20 -66 1 -123 -1 -127 -4z"/>
<path d="M1670 2915 c0 -10 10 -15 30 -15 20 0 30 5 30 15 0 10 -10 15 -30 15
-20 0 -30 -5 -30 -15z"/>
<path d="M1760 2855 c0 -12 15 -15 75 -15 60 0 75 3 75 15 0 12 -15 15 -75 15
-60 0 -75 -3 -75 -15z"/>
<path d="M2260 2850 c0 -19 5 -21 67 -18 55 2 68 6 71 21 3 15 -5 17 -67 17
-65 0 -71 -2 -71 -20z"/>
<path d="M1670 2785 c0 -12 14 -15 70 -15 56 0 70 3 70 15 0 12 -14 15 -70 15
-56 0 -70 -3 -70 -15z"/>
<path d="M1760 2720 c0 -20 5 -21 78 -18 60 2 77 6 77 18 0 12 -17 16 -77 18
-73 3 -78 2 -78 -18z"/>
<path d="M3200 2627 c0 -125 5 -135 46 -96 l22 21 7 -30 c3 -17 13 -33 22 -37
20 -7 53 22 37 33 -6 4 -13 15 -17 25 -5 13 -1 17 18 17 14 0 25 6 25 13 0 7
-36 48 -80 92 l-80 80 0 -118z"/>
<path d="M1570 2655 c0 -12 16 -15 85 -15 69 0 85 3 85 15 0 12 -16 15 -85 15
-69 0 -85 -3 -85 -15z"/>
<path d="M1670 2590 c0 -18 7 -20 70 -20 63 0 70 2 70 20 0 18 -7 20 -70 20
-63 0 -70 -2 -70 -20z"/>
<path d="M1670 2525 c0 -13 30 -15 210 -15 180 0 210 2 210 15 0 13 -30 15
-210 15 -180 0 -210 -2 -210 -15z"/>
<path d="M1670 2461 c0 -18 6 -21 51 -21 43 0 50 3 47 18 -2 13 -15 18 -51 20
-42 3 -47 1 -47 -17z"/>
<path d="M1800 2460 c0 -19 7 -20 125 -20 118 0 125 1 125 20 0 19 -7 20 -125
20 -118 0 -125 -1 -125 -20z"/>
<path d="M2080 2460 c0 -16 7 -20 30 -20 23 0 30 4 30 20 0 16 -7 20 -30 20
-23 0 -30 -4 -30 -20z"/>
<path d="M2180 2460 c0 -19 7 -20 195 -20 188 0 195 1 195 20 0 19 -7 20 -195
20 -188 0 -195 -1 -195 -20z"/>
<path d="M1760 2395 c0 -13 21 -15 130 -15 109 0 130 2 130 15 0 13 -21 15
-130 15 -109 0 -130 -2 -130 -15z"/>
<path d="M2050 2395 c0 -12 18 -15 105 -15 87 0 105 3 105 15 0 12 -18 15
-105 15 -87 0 -105 -3 -105 -15z"/>
<path d="M2270 2395 c0 -13 32 -15 230 -15 198 0 230 2 230 15 0 13 -32 15
-230 15 -198 0 -230 -2 -230 -15z"/>
<path d="M1670 2330 c0 -19 6 -20 86 -20 76 0 85 2 82 18 -3 14 -16 17 -86 20
-77 3 -82 2 -82 -18z"/>
<path d="M2180 2330 c0 -19 7 -20 195 -20 188 0 195 1 195 20 0 19 -7 20 -195
20 -188 0 -195 -1 -195 -20z"/>
<path d="M1670 2265 c0 -11 12 -15 45 -15 33 0 45 4 45 15 0 11 -12 15 -45 15
-33 0 -45 -4 -45 -15z"/>
<path d="M1800 2265 c0 -12 13 -15 60 -15 47 0 60 3 60 15 0 12 -13 15 -60 15
-47 0 -60 -3 -60 -15z"/>
<path d="M1950 2265 c0 -11 11 -15 40 -15 29 0 40 4 40 15 0 11 -11 15 -40 15
-29 0 -40 -4 -40 -15z"/>
<path d="M2060 2265 c0 -13 21 -15 125 -15 104 0 125 2 125 15 0 13 -21 15
-125 15 -104 0 -125 -2 -125 -15z"/>
<path d="M2137 2213 c-4 -3 -7 -12 -7 -20 0 -10 22 -13 90 -13 83 0 90 1 90
20 0 18 -7 20 -83 20 -46 0 -87 -3 -90 -7z"/>
<path d="M1760 2195 c0 -12 16 -15 80 -15 64 0 80 3 80 15 0 12 -16 15 -80 15
-64 0 -80 -3 -80 -15z"/>
</g>
</svg>
